<?xml version="1.0" encoding="UTF-8" standalone="no"?>
<svg
   xmlns:dc="http://purl.org/dc/elements/1.1/"
   xmlns:cc="http://creativecommons.org/ns#"
   xmlns:rdf="http://www.w3.org/1999/02/22-rdf-syntax-ns#"
   xmlns:svg="http://www.w3.org/2000/svg"
   xmlns="http://www.w3.org/2000/svg"
   xmlns:sodipodi="http://sodipodi.sourceforge.net/DTD/sodipodi-0.dtd"
   xmlns:inkscape="http://www.inkscape.org/namespaces/inkscape"
   viewBox="0 0 95.175873 95.175873"
   preserveAspectRatio="xMidYMid"
   id="gears"
   version="1.1"
   width="95.175873"
   height="95.175873">
  <defs
     id="defs19" />
  <g
     transform="translate(47.471981,47.471981)"
     id="g14">
    <g
       transform="matrix(0.6,0,0,0.6,-19,-19)"
       id="g6">
      <g
         transform="rotate(60.9236)"
         id="g4">
        <animateTransform
           attributeName="transform"
           type="rotate"
           values="0;360"
           keyTimes="0;1"
           dur="6.1s"
           begin="0s"
           repeatCount="indefinite" />
        <path
           d="m 37.349699,-7 h 10 V 7 h -10 a 38,38 0 0 1 -5.989726,14.460478 v 0 l 7.071068,7.071068 -9.899495,9.899495 -7.071068,-7.071068 A 38,38 0 0 1 7,37.349699 v 0 10 H -7 v -10 a 38,38 0 0 1 -14.460478,-5.989726 v 0 l -7.071068,7.071068 -9.899495,-9.899495 7.071068,-7.071068 A 38,38 0 0 1 -37.349699,7 v 0 h -10 V -7 h 10 a 38,38 0 0 1 5.989726,-14.460478 v 0 l -7.071068,-7.071068 9.899495,-9.899495 7.071068,7.071068 A 38,38 0 0 1 -7,-37.349699 v 0 -10 H 7 v 10 a 38,38 0 0 1 14.460478,5.989726 v 0 l 7.071068,-7.071068 9.899495,9.899495 -7.071068,7.071068 A 38,38 0 0 1 37.349699,-7 M 0,-23 a 23,23 0 1 0 0,46 23,23 0 1 0 0,-46"
           id="path2"
           inkscape:connector-curvature="0"
           style="fill:#ffffff" />
      </g>
    </g>
    <g
       transform="matrix(0.6,0,0,0.6,19,19)"
       id="g12">
      <g
         transform="rotate(-83.424)"
         id="g10">
        <animateTransform
           attributeName="transform"
           type="rotate"
           values="360;0"
           keyTimes="0;1"
           dur="6.1s"
           begin="-0.38125s"
           repeatCount="indefinite" />
        <path
           d="m 37.349699,-7 h 10 V 7 h -10 a 38,38 0 0 1 -5.989726,14.460478 v 0 l 7.071068,7.071068 -9.899495,9.899495 -7.071068,-7.071068 A 38,38 0 0 1 7,37.349699 v 0 10 H -7 v -10 a 38,38 0 0 1 -14.460478,-5.989726 v 0 l -7.071068,7.071068 -9.899495,-9.899495 7.071068,-7.071068 A 38,38 0 0 1 -37.349699,7 v 0 h -10 V -7 h 10 a 38,38 0 0 1 5.989726,-14.460478 v 0 l -7.071068,-7.071068 9.899495,-9.899495 7.071068,7.071068 A 38,38 0 0 1 -7,-37.349699 v 0 -10 H 7 v 10 a 38,38 0 0 1 14.460478,5.989726 v 0 l 7.071068,-7.071068 9.899495,9.899495 -7.071068,7.071068 A 38,38 0 0 1 37.349699,-7 M 0,-23 a 23,23 0 1 0 0,46 23,23 0 1 0 0,-46"
           id="path8"
           inkscape:connector-curvature="0"
           style="fill:#ffffff" />
      </g>
    </g>
  </g>
</svg>
